<?xml version="1.0" standalone="no"?>
<!DOCTYPE svg PUBLIC "-//W3C//DTD SVG 20010904//EN"
 "http://www.w3.org/TR/2001/REC-SVG-20010904/DTD/svg10.dtd">
<svg version="1.0" xmlns="http://www.w3.org/2000/svg"
 width="210.000000pt" height="210.000000pt" viewBox="0 0 210.000000 210.000000"
 preserveAspectRatio="xMidYMid meet">
<metadata>
Created by potrace 1.11, written by Peter Selinger 2001-2013
</metadata>
<g transform="translate(0.000000,210.000000) scale(0.100000,-0.100000)"
fill="#000000" stroke="none">
<path d="M1222 1940 c-12 -11 -30 -32 -39 -46 -9 -14 -22 -23 -30 -20 -11 4
-13 1 -8 -15 4 -11 3 -25 -2 -32 -5 -7 -11 -30 -12 -52 -1 -22 -6 -42 -11 -45
-5 -3 -16 -24 -23 -45 -8 -22 -20 -40 -28 -40 -9 0 -14 -11 -15 -30 -1 -17 -3
-37 -5 -45 -2 -8 1 -14 8 -15 18 0 28 -15 10 -15 -10 0 -17 -5 -17 -11 0 -5 4
-8 9 -5 5 4 12 0 14 -6 4 -10 6 -10 6 0 1 6 6 12 11 12 20 0 59 55 60 83 0 16
4 26 9 23 5 -3 9 0 8 7 -1 32 4 47 16 47 16 0 42 99 34 129 -3 12 -1 24 5 27
5 3 7 16 4 28 -3 13 1 32 10 44 22 32 13 47 -14 22z m-32 -222 c0 -18 -2 -20
-9 -8 -6 8 -7 18 -5 22 9 14 14 9 14 -14z"/>
<path d="M585 1823 c4 -21 8 -46 7 -55 0 -9 6 -22 14 -29 8 -6 14 -18 14 -27
0 -8 12 -30 26 -49 14 -19 23 -37 20 -40 -3 -3 4 -21 15 -39 12 -20 18 -42 14
-53 -4 -13 3 -24 22 -37 16 -10 33 -17 40 -16 7 2 10 -6 7 -20 -2 -13 -2 -17
2 -10 3 6 10 10 15 6 10 -6 10 -6 13 74 2 48 -2 57 -26 53 -3 0 -10 14 -13 32
-4 17 -10 36 -13 42 -3 5 -7 18 -7 29 -1 11 -18 32 -38 49 -21 16 -37 35 -37
43 0 8 -6 14 -14 14 -8 0 -24 16 -36 35 -28 45 -34 44 -25 -2z m145 -143 c0
-5 -4 -10 -10 -10 -5 0 -10 5 -10 10 0 6 5 10 10 10 6 0 10 -4 10 -10z"/>
<path d="M1713 1670 c-28 -16 -53 -27 -55 -25 -2 3 -23 -15 -47 -40 -23 -24
-46 -44 -50 -42 -5 1 -22 -10 -39 -25 -16 -14 -36 -25 -43 -25 -8 1 -16 -2
-17 -8 -8 -22 -37 -65 -44 -65 -4 0 -8 -4 -8 -10 0 -5 8 -10 18 -10 14 0 14
-2 3 -9 -22 -14 18 -18 57 -6 36 11 41 21 15 29 -14 4 -14 4 2 3 12 -1 35 13
54 33 21 22 35 30 38 23 3 -10 9 -9 20 3 13 12 13 18 4 24 -8 5 -3 8 14 8 27
0 64 33 65 58 0 7 7 15 16 18 9 3 14 13 10 21 -3 8 7 24 26 38 45 36 19 40
-39 7z"/>
<path d="M1045 1470 c-30 -8 -30 -8 8 -9 23 -1 36 3 32 9 -3 6 -7 9 -8 9 -1
-1 -15 -5 -32 -9z"/>
<path d="M1200 1430 c0 -5 5 -10 11 -10 5 0 7 5 4 10 -3 6 -8 10 -11 10 -2 0
-4 -4 -4 -10z"/>
<path d="M1255 1396 c17 -13 32 -22 34 -20 5 5 -42 43 -54 44 -5 0 4 -11 20
-24z"/>
<path d="M300 1403 c0 -37 97 -118 151 -127 19 -3 35 -10 37 -15 2 -6 21 -15
43 -21 21 -6 39 -17 39 -24 0 -16 68 -27 77 -13 3 5 9 3 14 -4 7 -11 9 -11 9
-1 0 7 5 10 12 6 6 -4 9 -3 7 2 -3 5 -11 23 -19 39 -24 50 -55 82 -75 79 -11
-2 -24 1 -30 5 -5 4 -37 13 -70 20 -33 7 -71 15 -85 19 -14 3 -31 4 -38 3 -8
-1 -21 4 -30 12 -25 21 -42 29 -42 20z m325 -110 c28 -31 32 -45 10 -37 -8 4
-15 12 -15 19 0 7 -7 15 -15 19 -8 3 -15 10 -15 16 0 16 7 12 35 -17z"/>
<path d="M468 1373 c6 -2 18 -2 25 0 6 3 1 5 -13 5 -14 0 -19 -2 -12 -5z"/>
<path d="M970 1360 c0 -5 -7 -7 -15 -3 -9 3 -36 0 -60 -7 -37 -10 -46 -18 -55
-46 -7 -19 -15 -32 -19 -29 -9 5 -72 -60 -75 -78 -2 -7 -6 -19 -9 -27 -24 -60
-37 -117 -32 -139 3 -14 7 -44 10 -65 2 -22 17 -64 32 -93 21 -42 31 -53 47
-51 13 2 20 -2 18 -10 -1 -7 5 -15 13 -18 8 -3 12 -10 9 -15 -7 -12 14 -39 30
-39 6 0 3 7 -6 14 -36 27 -5 23 37 -5 23 -16 51 -29 62 -29 10 0 24 -5 30 -11
6 -6 17 -9 25 -6 8 3 1 9 -17 16 -16 6 -38 16 -47 21 -10 6 -23 10 -30 10 -24
0 -108 89 -138 145 -17 32 -30 52 -30 46 0 -7 9 -30 21 -52 11 -23 18 -43 15
-47 -3 -3 -17 20 -31 52 -28 62 -37 177 -17 211 8 15 12 16 12 5 1 -8 9 1 20
20 24 43 25 54 4 46 -14 -6 -15 -4 -4 9 9 11 15 12 20 5 5 -7 11 -6 19 4 7 8
18 14 24 12 7 -1 8 -1 4 2 -4 2 -4 9 2 15 9 12 11 18 11 38 0 6 7 8 16 5 8 -3
31 1 51 9 19 8 45 15 57 16 20 0 21 1 1 9 -19 8 -19 9 3 9 12 1 22 -4 22 -10
0 -7 13 -9 38 -5 21 3 29 2 18 -2 -15 -7 -12 -10 17 -19 39 -12 47 -5 47 44 0
18 -4 24 -15 19 -8 -3 -15 -1 -15 5 0 6 -4 8 -9 5 -5 -3 -22 1 -37 9 -33 17
-74 20 -74 5z m50 -20 c0 -5 -2 -10 -4 -10 -3 0 -8 5 -11 10 -3 6 -1 10 4 10
6 0 11 -4 11 -10z m60 -20 c0 -5 -2 -10 -4 -10 -3 0 -8 5 -11 10 -3 6 -1 10 4
10 6 0 11 -4 11 -10z"/>
<path d="M1300 1363 c0 -5 9 -18 20 -28 11 -10 20 -14 20 -8 0 5 -9 18 -20 28
-11 10 -20 14 -20 8z"/>
<path d="M640 1336 c0 -2 8 -10 18 -17 15 -13 16 -12 3 4 -13 16 -21 21 -21
13z"/>
<path d="M1150 1311 c0 -6 4 -13 10 -16 6 -3 7 1 4 9 -7 18 -14 21 -14 7z"/>
<path d="M1350 1305 c0 -4 7 -19 15 -33 24 -45 45 -146 32 -154 -9 -6 -9 -8 0
-8 8 0 11 -16 7 -52 -7 -72 -8 -81 -17 -95 -14 -23 8 -14 23 10 26 39 50 147
32 147 -5 0 -13 24 -16 54 -4 31 -15 62 -27 74 -10 12 -19 25 -19 30 0 5 -7
15 -15 22 -8 7 -15 9 -15 5z"/>
<path d="M939 1270 c-29 -8 -82 -41 -76 -46 2 -2 21 5 43 15 21 11 50 24 64
30 29 11 7 13 -31 1z"/>
<path d="M1206 1267 c3 -10 9 -15 12 -12 3 3 0 11 -7 18 -10 9 -11 8 -5 -6z"/>
<path d="M1236 1264 c-8 -21 -8 -21 7 -21 7 0 13 9 13 19 0 22 -12 24 -20 2z"/>
<path d="M756 1253 c-6 -14 -5 -15 5 -6 7 7 10 15 7 18 -3 3 -9 -2 -12 -12z"/>
<path d="M1061 1256 c2 -2 15 -9 29 -15 24 -11 24 -11 6 3 -16 13 -49 24 -35
12z"/>
<path d="M1148 1245 c-7 -8 23 -65 35 -65 5 0 7 6 4 13 -2 6 3 18 12 25 14 10
12 11 -11 6 -20 -4 -27 -2 -30 11 -1 9 -6 14 -10 10z"/>
<path d="M1774 1237 c-10 -5 -22 -15 -26 -21 -4 -6 -25 -11 -47 -13 -32 -2
-41 1 -41 13 0 12 -6 15 -22 10 -13 -3 -33 -6 -45 -6 -17 0 -23 -6 -23 -22 -1
-21 -2 -21 -11 -5 -6 9 -15 15 -20 11 -6 -3 9 -24 32 -45 l43 -39 79 2 c54 2
82 7 85 16 2 7 -2 10 -12 6 -9 -3 -16 -1 -16 6 0 7 11 9 30 6 16 -2 33 0 36 5
10 18 58 32 99 30 l40 -1 -50 26 c-56 30 -101 37 -131 21z"/>
<path d="M956 1231 c-4 -5 3 -7 14 -4 23 6 26 13 6 13 -8 0 -17 -4 -20 -9z"/>
<path d="M1246 1222 c-10 -10 19 -30 31 -21 15 13 23 -2 16 -29 -4 -18 -8 -20
-19 -11 -8 6 -14 8 -14 3 0 -5 -4 -3 -9 4 -5 8 -17 12 -27 10 -16 -4 -14 -7 9
-16 21 -9 27 -17 22 -31 -3 -11 -1 -22 5 -26 5 -3 10 -13 10 -21 0 -9 -5 -12
-12 -8 -7 4 -8 3 -4 -4 4 -7 20 -12 37 -12 16 0 29 -5 29 -12 0 -6 3 -9 6 -5
7 7 -16 80 -28 88 -5 3 -4 17 3 31 14 32 0 61 -30 63 -12 1 -23 0 -25 -3z m54
-126 c0 -8 -4 -17 -9 -21 -6 -3 -9 4 -8 15 1 23 17 28 17 6z"/>
<path d="M885 1199 c-21 -11 -55 -69 -55 -94 0 -8 -5 -15 -11 -15 -5 0 -7 -5
-3 -12 4 -6 8 -35 8 -63 1 -29 7 -59 14 -67 10 -13 10 -17 -3 -22 -8 -3 -15
-11 -14 -18 0 -10 2 -10 6 0 2 6 11 12 19 12 9 0 12 -4 9 -10 -3 -5 1 -10 9
-10 10 0 13 -6 9 -15 -3 -10 0 -15 8 -13 8 2 13 -2 12 -8 -1 -7 13 -15 32 -18
19 -4 35 -11 35 -16 0 -6 6 -9 12 -7 7 1 14 -8 16 -20 4 -25 30 -40 28 -15 -1
11 8 16 32 18 21 1 32 -3 32 -12 0 -8 -6 -11 -15 -8 -10 4 -13 2 -10 -7 6 -16
73 -23 89 -10 6 5 15 9 19 9 15 0 67 24 67 32 0 4 9 10 20 13 11 3 20 10 20
17 0 6 -4 8 -10 5 -5 -3 -7 0 -4 8 3 8 1 18 -5 22 -18 10 -12 24 8 22 15 -1
17 -4 9 -14 -6 -8 -7 -13 0 -13 5 0 15 6 21 14 14 17 32 76 23 75 -4 -1 -14
-1 -22 0 -13 1 -13 3 0 10 8 6 18 7 22 5 20 -12 19 29 -1 47 -21 20 -21 20
-18 -3 1 -14 -6 -26 -20 -33 -20 -10 -21 -13 -7 -26 8 -9 12 -23 8 -32 -10
-26 -22 -20 -29 13 -6 28 -19 39 -27 23 -10 -23 -90 -64 -136 -70 -64 -7 -91
0 -132 35 -25 22 -31 34 -26 50 5 14 3 22 -5 22 -8 0 -8 5 2 16 12 15 11 16
-11 10 -19 -6 -21 -5 -10 3 10 7 11 11 3 11 -7 0 -13 5 -13 11 0 8 5 8 15 -1
13 -11 19 -9 34 9 10 11 23 21 28 21 6 0 16 7 23 15 9 10 9 15 1 15 -6 0 -11
5 -11 10 0 18 22 11 27 -9 2 -10 16 -24 29 -30 13 -6 24 -17 24 -26 0 -8 5
-15 10 -15 6 0 10 -4 10 -10 0 -5 -3 -10 -7 -9 -15 2 -53 -14 -53 -22 0 -5 7
-6 15 -3 9 4 15 0 15 -9 0 -12 19 -27 36 -27 11 0 2 30 -8 30 -7 0 -5 5 5 11
13 8 22 8 29 1 6 -6 17 -8 24 -5 21 8 17 20 -7 19 -12 -1 -24 4 -26 11 -2 6 4
10 14 9 10 -2 13 -1 6 1 -17 6 -24 32 -13 53 14 25 -8 32 -39 11 -20 -13 -23
-13 -19 -1 2 8 -1 21 -9 28 -21 22 -15 33 15 27 20 -4 17 -2 -11 11 -30 13
-47 15 -80 7 -24 -5 -41 -14 -39 -21 1 -7 -2 -12 -8 -12 -5 0 -10 5 -10 10 0
6 -13 -4 -29 -22 -16 -18 -33 -30 -37 -26 -9 9 20 54 55 84 27 24 21 30 -14
13z m132 -46 c0 -8 -12 -13 -28 -13 -15 0 -29 -4 -31 -9 -1 -4 -14 -11 -28
-15 -23 -6 -23 -5 -7 6 10 7 28 21 39 30 23 19 55 20 55 1z m-97 -73 c0 -5 -4
-10 -10 -10 -5 0 -10 5 -10 10 0 6 5 10 10 10 6 0 10 -4 10 -10z m-50 -14 c0
-3 -5 -17 -11 -33 -8 -21 -12 -24 -19 -13 -9 15 5 50 20 50 6 0 10 -2 10 -4z
m20 -116 c0 -5 -5 -10 -11 -10 -5 0 -7 5 -4 10 3 6 8 10 11 10 2 0 4 -4 4 -10z
m350 -25 c0 -8 -2 -15 -4 -15 -2 0 -6 7 -10 15 -3 8 -1 15 4 15 6 0 10 -7 10
-15z m-350 1 c0 -3 -4 -8 -10 -11 -5 -3 -10 -1 -10 4 0 6 5 11 10 11 6 0 10
-2 10 -4z m300 -16 c0 -5 -5 -10 -11 -10 -5 0 -7 5 -4 10 3 6 8 10 11 10 2 0
4 -4 4 -10z m40 -20 c0 -5 -5 -10 -11 -10 -5 0 -7 5 -4 10 3 6 8 10 11 10 2 0
4 -4 4 -10z m-264 -16 c-3 -9 -2 -12 5 -9 11 7 39 -12 39 -26 0 -8 -67 15 -79
27 -6 6 19 24 33 24 4 0 5 -7 2 -16z m184 -20 c-1 -4 4 -11 12 -15 7 -5 9 -9
3 -9 -23 0 -38 18 -30 36 5 12 9 15 12 7 2 -7 4 -15 3 -19z m-82 -19 c2 -2 -1
-6 -6 -9 -5 -3 -18 4 -28 16 -19 21 -19 21 6 8 14 -7 26 -14 28 -15z m42 -45
c0 -5 -4 -10 -10 -10 -5 0 -10 5 -10 10 0 6 5 10 10 10 6 0 10 -4 10 -10z"/>
<path d="M808 1163 c7 -3 16 -2 19 1 4 3 -2 6 -13 5 -11 0 -14 -3 -6 -6z"/>
<path d="M1551 1131 c13 -11 26 -18 28 -15 7 7 -21 34 -36 34 -10 0 -8 -6 8
-19z"/>
<path d="M1207 1120 c3 -11 9 -20 14 -20 11 0 11 3 3 24 -9 23 -23 20 -17 -4z"/>
<path d="M1718 1103 c7 -3 16 -2 19 1 4 3 -2 6 -13 5 -11 0 -14 -3 -6 -6z"/>
<path d="M742 1070 c0 -14 2 -19 5 -12 2 6 2 18 0 25 -3 6 -5 1 -5 -13z"/>
<path d="M1206 1074 c-9 -24 -2 -26 12 -4 7 11 8 20 3 20 -5 0 -12 -7 -15 -16z"/>
<path d="M956 1034 c-17 -12 -18 -14 -3 -20 20 -7 47 1 47 15 0 16 -25 19 -44
5z"/>
<path d="M743 1005 c0 -22 2 -30 4 -17 2 12 2 30 0 40 -3 9 -5 -1 -4 -23z"/>
<path d="M482 1001 c-9 -5 -1 -10 25 -14 61 -11 71 -7 28 8 -22 8 -40 15 -40
15 0 0 -6 -4 -13 -9z"/>
<path d="M987 971 c16 -20 33 -19 33 0 0 6 -4 7 -10 4 -5 -3 -10 -1 -10 4 0 6
-7 11 -15 11 -12 0 -12 -3 2 -19z"/>
<path d="M400 970 c-12 -8 -12 -10 5 -10 14 0 16 -3 7 -8 -8 -5 -10 -16 -5
-28 6 -17 5 -17 -10 -5 -9 7 -17 19 -17 26 0 10 -11 8 -40 -6 -21 -10 -48 -19
-58 -19 -10 0 -22 -3 -26 -7 -4 -5 -26 -13 -48 -18 -61 -16 -56 -30 9 -30 32
-1 78 -2 103 -3 49 -2 94 2 154 13 26 5 41 4 45 -4 10 -16 73 19 66 37 -2 6 0
12 5 12 6 0 10 -4 10 -10 0 -5 5 -10 10 -10 13 0 9 30 -5 46 -6 8 -19 8 -43 1
-27 -9 -35 -8 -43 4 -5 8 -9 10 -9 4 0 -5 -5 -2 -11 8 -11 19 -73 24 -99 7z
m70 -22 c0 -4 -9 -8 -20 -8 -11 0 -20 4 -20 8 0 4 9 8 20 8 11 0 20 -4 20 -8z"/>
<path d="M680 960 c0 -25 29 -123 38 -129 5 -3 12 -16 16 -27 4 -12 20 -27 37
-34 16 -7 33 -18 37 -24 17 -27 114 -85 129 -78 2 1 19 -6 39 -14 27 -11 50
-13 88 -8 l51 8 -72 7 c-160 15 -290 115 -344 262 -10 29 -18 45 -19 37z"/>
<path d="M1145 960 c3 -5 8 -10 11 -10 2 0 4 5 4 10 0 6 -5 10 -11 10 -5 0 -7
-4 -4 -10z"/>
<path d="M1027 946 c-6 -16 19 -30 28 -16 7 11 -2 30 -15 30 -4 0 -10 -6 -13
-14z"/>
<path d="M1075 940 c-3 -5 1 -10 10 -10 9 0 13 5 10 10 -3 6 -8 10 -10 10 -2
0 -7 -4 -10 -10z"/>
<path d="M1351 905 c-11 -19 -26 -35 -32 -35 -8 0 -7 5 2 18 7 9 1 6 -14 -7
-32 -29 -33 -32 -9 -25 9 3 1 -8 -18 -25 -19 -17 -30 -31 -25 -31 4 0 17 7 27
17 10 9 21 14 24 11 8 -8 -99 -88 -117 -88 -8 0 -20 -5 -26 -11 -6 -6 -36 -12
-68 -14 -31 -2 -60 -7 -63 -11 -4 -4 27 -4 69 -1 76 5 129 26 175 68 11 10 25
19 30 19 15 0 59 49 51 57 -4 3 -2 12 4 19 6 8 9 20 6 28 -4 10 -1 13 9 9 9
-3 14 2 14 16 0 31 -15 26 -39 -14z"/>
<path d="M840 881 c0 -5 5 -13 10 -16 6 -3 10 -2 10 4 0 5 -4 13 -10 16 -5 3
-10 2 -10 -4z"/>
<path d="M1535 883 c-11 -3 -23 -10 -27 -17 -6 -8 -8 -7 -8 2 0 6 -8 12 -17
11 -10 0 -13 -3 -7 -5 7 -3 10 -13 7 -22 -7 -29 55 -78 117 -92 30 -7 60 -19
65 -26 10 -12 78 -34 120 -39 11 -1 36 -6 55 -10 l35 -7 -25 21 c-14 11 -43
33 -65 48 -22 16 -42 30 -45 34 -3 3 -20 11 -37 18 -18 8 -33 19 -33 26 0 7
-20 18 -46 25 -31 9 -43 17 -40 26 5 14 -10 16 -49 7z m60 -111 c-3 -3 -11 0
-18 7 -9 10 -8 11 6 5 10 -3 15 -9 12 -12z"/>
<path d="M820 856 c0 -2 8 -10 18 -17 15 -13 16 -12 3 4 -13 16 -21 21 -21 13z"/>
<path d="M890 826 c0 -2 7 -7 16 -10 8 -3 12 -2 9 4 -6 10 -25 14 -25 6z"/>
<path d="M1440 825 c0 -10 28 -35 38 -35 6 0 13 -6 15 -12 3 -7 6 -8 6 -2 1 5
-12 20 -29 32 -16 13 -30 20 -30 17z"/>
<path d="M1214 774 c-18 -14 -18 -15 4 -4 12 6 22 13 22 15 0 8 -5 6 -26 -11z"/>
<path d="M613 753 c-17 -2 -34 -10 -36 -17 -4 -10 3 -10 36 1 40 14 61 25 41
21 -5 0 -23 -3 -41 -5z"/>
<path d="M1110 746 c0 -9 30 -14 35 -6 4 6 -3 10 -14 10 -12 0 -21 -2 -21 -4z"/>
<path d="M1588 733 c7 -3 16 -2 19 1 4 3 -2 6 -13 5 -11 0 -14 -3 -6 -6z"/>
<path d="M575 710 c-12 -4 -27 -15 -34 -24 -12 -14 -11 -16 10 -12 13 2 23 9
22 15 -2 5 3 8 11 5 7 -3 16 2 19 10 7 18 2 19 -28 6z"/>
<path d="M668 703 c-14 -13 -20 -14 -32 -3 -14 11 -16 9 -16 -9 0 -12 -4 -20
-9 -17 -12 8 -54 -31 -46 -43 10 -17 -11 -13 -25 4 -12 14 -15 13 -35 -5 -12
-11 -26 -20 -33 -20 -6 0 -15 -6 -19 -13 -4 -8 -20 -22 -35 -32 -16 -9 -28
-23 -28 -31 0 -10 5 -10 28 2 15 7 49 14 76 14 32 0 60 7 82 21 19 11 34 17
34 13 0 -4 13 4 28 19 16 15 35 25 43 22 21 -7 54 62 38 81 -15 18 -31 18 -51
-3z"/>
<path d="M1175 679 c-40 -15 -43 -18 -15 -13 19 4 46 12 60 20 34 18 15 15
-45 -7z"/>
<path d="M1316 638 c5 -8 2 -9 -10 -5 -11 4 -15 3 -10 -4 4 -6 0 -15 -7 -20
-11 -7 -11 -9 2 -9 9 0 16 -6 16 -12 0 -7 4 -21 8 -30 4 -11 3 -18 -4 -18 -6
0 -11 -7 -11 -15 0 -8 4 -15 8 -15 5 0 10 -6 11 -12 2 -15 9 -70 10 -80 1 -4
7 -5 15 -2 7 3 16 -1 19 -9 4 -11 -1 -14 -18 -12 -21 2 -23 0 -12 -15 25 -36
87 -100 97 -100 5 0 13 -12 16 -28 11 -45 19 -49 24 -12 7 43 -13 103 -53 163
-10 15 -17 34 -14 41 3 8 0 22 -7 32 -15 22 -17 56 -3 65 5 4 0 19 -13 37 -12
16 -19 35 -16 41 4 6 3 11 -3 11 -5 0 -13 -4 -16 -10 -11 -18 -23 -11 -18 10
3 12 0 20 -6 20 -7 0 -9 -5 -5 -12z"/>
<path d="M1233 581 c-6 -18 -7 -31 -2 -31 12 0 22 24 17 45 -2 12 -7 7 -15
-14z"/>
<path d="M935 587 c-6 -6 -9 -24 -7 -39 5 -31 -6 -35 -41 -17 -18 10 -24 8
-44 -15 -13 -15 -23 -32 -23 -39 0 -7 4 -6 10 3 5 8 10 12 10 8 0 -5 9 1 20
12 39 39 57 10 20 -32 -10 -13 -19 -27 -19 -32 0 -5 -5 -13 -13 -17 -9 -6 -6
-9 12 -9 l25 -1 -28 -15 c-15 -8 -32 -12 -37 -9 -5 3 -5 -6 -1 -22 4 -16 8
-43 7 -61 -1 -17 3 -32 8 -32 4 0 6 -6 3 -14 -12 -31 -19 -86 -11 -86 5 0 26
36 47 79 37 79 48 140 25 142 -7 1 -2 4 12 8 14 4 27 15 29 26 4 24 28 48 40
41 12 -8 18 22 13 67 -2 22 -9 36 -16 34 -6 -2 -15 4 -21 13 -7 12 -13 14 -20
7z"/>
<path d="M960 589 c0 -5 5 -7 10 -4 6 3 10 8 10 11 0 2 -4 4 -10 4 -5 0 -10
-5 -10 -11z"/>
<path d="M856 569 c-23 -27 -15 -35 9 -9 10 11 16 22 14 25 -3 2 -13 -5 -23
-16z"/>
<path d="M1257 534 c-2 -12 2 -35 8 -50 12 -28 12 -28 16 22 3 34 0 51 -8 51
-6 0 -13 -10 -16 -23z"/>
<path d="M810 451 c0 -6 4 -13 10 -16 6 -3 7 1 4 9 -7 18 -14 21 -14 7z"/>
<path d="M1276 397 c3 -10 9 -15 12 -12 3 3 0 11 -7 18 -10 9 -11 8 -5 -6z"/>
<path d="M970 150 c-38 -5 -42 -8 -25 -15 26 -12 184 -13 210 -1 41 19 -91 30
-185 16z"/>
</g>
</svg>
