<?xml version="1.0" standalone="no"?>
<!DOCTYPE svg PUBLIC "-//W3C//DTD SVG 20010904//EN"
 "http://www.w3.org/TR/2001/REC-SVG-20010904/DTD/svg10.dtd">
<svg version="1.0" xmlns="http://www.w3.org/2000/svg"
 width="192.000000pt" height="192.000000pt" viewBox="0 0 192.000000 192.000000"
 preserveAspectRatio="xMidYMid meet">
<metadata>
Created by potrace 1.11, written by Peter Selinger 2001-2013
</metadata>
<g transform="translate(0.000000,192.000000) scale(0.100000,-0.100000)"
fill="#000000" stroke="none">
<path d="M592 1783 c-5 -10 -8 -26 -7 -35 2 -9 -3 -22 -11 -28 -15 -13 -34 -5
-33 13 0 9 2 8 6 -1 2 -6 9 -10 14 -6 14 8 0 24 -22 24 -19 0 -24 -19 -22 -77
1 -13 -6 -23 -18 -26 -23 -6 -21 -25 4 -49 13 -12 15 -17 5 -21 -10 -4 -10 -6
0 -6 19 -1 14 -21 -5 -21 -12 -1 -7 -6 12 -15 17 -7 24 -14 18 -14 -7 -1 -13
-7 -13 -15 0 -8 6 -17 13 -20 10 -5 10 -7 0 -12 -16 -7 -17 -34 -1 -34 9 0 9
-3 1 -11 -9 -9 -6 -17 8 -32 22 -23 25 -63 7 -70 -9 -4 -7 -6 3 -6 9 -1 24
-10 34 -21 22 -25 34 -25 51 -2 12 15 15 15 23 2 6 -9 6 -19 -1 -27 -5 -7 -7
-31 -4 -55 3 -24 3 -36 -1 -28 -3 8 -12 20 -19 28 -7 7 -10 20 -7 29 5 13 2
15 -12 9 -10 -3 -21 -2 -25 4 -5 7 -15 8 -33 1 -17 -7 -28 -7 -32 -1 -4 6 -1
10 4 10 6 0 11 5 11 11 0 6 -9 9 -20 6 -11 -3 -20 -1 -20 4 0 5 4 9 9 9 5 0
14 14 20 31 13 39 13 39 1 39 -5 0 -10 -6 -10 -12 0 -7 -14 -28 -31 -46 -22
-23 -36 -31 -52 -27 -12 3 -36 7 -54 8 -34 2 -34 4 -1 21 12 6 23 18 25 26 4
13 3 13 -6 0 -7 -10 -11 -11 -11 -2 0 6 -5 12 -10 12 -6 0 -9 -5 -8 -11 2 -6
-7 -13 -20 -14 -15 -1 -21 3 -18 12 3 7 -1 13 -8 13 -8 0 -13 -10 -12 -22 0
-13 -3 -22 -9 -22 -5 1 -25 5 -43 9 -20 4 -32 3 -32 -4 0 -6 4 -11 9 -11 5 0
11 -12 14 -27 5 -26 4 -26 -9 -8 -12 17 -14 9 -13 -66 1 -46 4 -70 6 -54 7 56
14 76 23 70 6 -3 10 -13 10 -21 0 -9 7 -22 15 -30 13 -14 15 -14 15 0 0 20 5
20 41 -1 19 -11 29 -25 29 -41 0 -17 4 -22 15 -19 8 4 17 2 20 -3 4 -6 16 -3
30 6 23 15 26 14 49 -9 14 -14 36 -27 48 -29 13 -2 23 -11 24 -21 1 -12 1 -13
-3 -2 -3 10 -17 15 -41 14 -20 0 -31 -3 -24 -6 14 -6 16 -23 2 -23 -9 0 -60
-47 -60 -55 0 -2 8 -6 18 -8 13 -4 13 -5 -4 -6 -12 0 -43 -10 -68 -22 -26 -11
-70 -21 -97 -22 -44 -1 -50 -3 -56 -26 -4 -14 -6 -31 -5 -37 1 -7 -11 -14 -27
-16 -17 -2 -28 -1 -25 3 9 15 -9 39 -28 39 -14 0 -18 -5 -14 -15 3 -9 0 -15
-9 -15 -18 0 -19 -12 -3 -28 10 -10 10 -17 0 -32 -11 -17 -10 -20 8 -20 12 0
20 -7 20 -17 0 -10 7 -27 15 -37 13 -17 18 -18 40 -6 13 7 27 22 31 32 5 17
13 19 70 14 42 -3 64 -2 64 5 0 17 52 0 74 -23 14 -15 16 -22 7 -28 -10 -5 -9
-9 3 -13 12 -5 16 0 16 22 0 17 -6 31 -16 35 -8 3 -12 11 -8 17 5 9 11 6 21
-6 10 -15 16 -16 25 -7 19 19 34 14 35 -10 2 -21 -12 -38 -31 -38 -6 0 -1 7
10 15 17 13 17 14 2 15 -18 0 -22 -9 -18 -44 1 -16 -43 -64 -60 -66 -3 0 -6
12 -6 28 -1 15 -8 43 -17 62 -13 29 -17 32 -23 17 -4 -12 0 -22 11 -31 15 -11
17 -22 11 -65 -7 -51 -6 -52 15 -46 20 7 21 7 2 -13 -18 -19 -18 -19 -35 2
-17 22 -36 17 -22 -6 13 -21 13 -37 -1 -32 -8 3 -15 -7 -20 -28 -4 -18 -9 -27
-12 -20 -7 19 -23 14 -23 -8 0 -11 3 -19 8 -18 22 5 62 -16 62 -33 0 -14 7
-19 30 -19 23 0 31 5 36 25 6 23 16 30 39 25 5 -1 23 -1 40 -1 16 1 40 1 53 1
12 0 22 4 22 9 0 12 -30 22 -42 14 -7 -3 -8 -1 -4 5 4 7 21 12 37 12 26 0 29
-3 24 -21 -7 -20 -6 -20 14 -3 22 19 19 34 -7 35 -13 0 -12 3 6 11 27 14 33 9
34 -31 1 -17 5 -31 10 -31 4 0 8 5 8 10 0 6 4 10 9 10 13 0 19 -34 13 -66 -5
-25 -6 -26 -13 -9 -7 19 -8 19 -8 -2 -1 -13 4 -23 9 -23 6 0 10 -18 10 -39 0
-22 5 -42 13 -44 6 -3 2 -6 -10 -6 -17 -1 -23 -7 -23 -24 0 -24 21 -30 47 -14
14 9 24 -30 16 -62 -4 -17 -8 -19 -14 -9 -7 11 -9 11 -9 0 0 -7 -8 -12 -17
-11 -10 1 -29 -2 -43 -8 -50 -20 -89 -23 -104 -8 -17 18 -26 19 -26 4 0 -17
66 -79 83 -79 9 0 28 -5 42 -10 23 -9 25 -13 15 -25 -18 -22 3 -18 28 5 27 26
47 25 66 -1 12 -17 24 -21 62 -21 49 1 77 12 31 12 -15 0 -27 3 -27 8 0 4 65
7 145 7 109 0 145 -3 145 -12 0 -7 7 -13 15 -13 8 0 15 6 15 14 0 17 33 31 38
17 5 -14 29 -14 34 0 2 6 31 13 63 15 55 3 63 6 96 42 19 22 45 43 58 47 15 4
20 12 17 22 -3 8 -9 27 -13 41 -9 38 -35 71 -55 72 -23 0 -34 20 -11 20 15 0
14 2 -5 16 -13 9 -22 23 -21 32 4 45 -2 62 -21 62 -14 0 -20 6 -19 23 0 20 1
20 8 3 5 -14 10 -16 15 -8 4 7 -2 28 -14 47 -19 30 -19 34 -4 28 12 -4 15 -2
12 8 -3 8 -13 13 -23 11 -9 -2 -14 1 -11 7 4 5 -4 20 -17 33 -20 20 -21 26
-10 36 19 18 16 35 -5 30 -19 -5 -29 27 -11 37 5 3 6 -1 3 -9 -4 -11 0 -13 16
-9 19 5 20 7 5 29 -8 13 -11 24 -6 24 5 0 16 -15 24 -32 18 -38 53 -65 60 -45
2 7 9 3 16 -11 12 -23 34 -31 25 -9 -3 9 6 12 36 9 22 -2 37 -8 34 -13 -8 -14
40 -11 54 3 9 9 15 10 20 2 4 -6 34 -12 66 -13 33 -1 67 -6 76 -11 24 -13 80
10 80 32 0 12 8 18 24 18 21 0 24 4 23 27 -2 23 -9 30 -42 39 -22 7 -58 13
-80 14 -31 1 -35 3 -20 9 11 5 23 7 28 4 4 -2 7 1 7 6 0 6 -16 11 -35 11 -24
0 -35 -5 -35 -15 0 -8 -7 -15 -15 -15 -8 0 -12 6 -9 14 4 10 -3 16 -23 18 -20
2 -27 8 -25 20 2 14 -3 17 -25 14 -15 -2 -22 -1 -14 1 35 12 55 53 26 53 -8 0
-15 5 -15 10 0 6 -11 10 -25 10 -26 0 -72 38 -67 54 4 13 -17 24 -38 19 -12
-3 -16 -11 -13 -24 4 -13 11 -18 20 -14 11 4 13 1 8 -12 -4 -10 -7 -26 -7 -36
0 -9 -3 -15 -9 -12 -5 4 -9 15 -9 26 0 10 -4 19 -8 19 -15 0 -11 58 4 71 11 9
14 9 14 0 0 -7 5 -9 12 -5 16 10 55 12 101 3 20 -3 40 -3 42 2 3 4 24 6 46 4
33 -4 40 -2 35 10 -6 17 10 30 19 15 8 -13 45 10 45 29 0 11 -3 11 -17 0 -12
-9 -12 -6 2 9 17 18 33 22 87 24 49 1 69 6 73 16 8 21 -2 27 -20 12 -16 -13
-16 -12 -19 55 -1 11 -11 21 -24 25 -13 3 -23 8 -23 13 2 21 0 27 -10 27 -6 0
-9 -7 -5 -15 7 -19 -8 -19 -27 0 -12 11 -17 12 -21 2 -5 -9 -7 -9 -12 1 -7 14
-34 17 -34 3 0 -5 6 -12 13 -15 6 -3 2 -3 -11 0 -13 3 -38 -1 -55 -9 -18 -9
-50 -18 -72 -21 -22 -3 -33 -3 -23 0 25 8 31 34 8 34 -10 0 -22 -4 -25 -10 -8
-13 -25 -13 -25 1 0 5 4 7 10 4 6 -3 7 1 4 9 -3 9 -14 16 -23 16 -30 0 -44 16
-32 36 6 11 11 13 11 7 0 -7 7 -13 15 -13 13 0 15 7 9 35 -5 29 -3 35 11 35
11 0 15 -5 11 -15 -7 -18 -2 -19 27 -2 36 20 57 39 57 53 0 7 -8 15 -17 17
-10 3 -3 5 15 6 27 1 32 5 32 26 0 17 4 23 14 19 8 -3 17 -1 21 5 3 6 -1 11
-10 11 -13 0 -14 4 -5 20 6 11 8 26 4 32 -4 7 -3 8 4 4 7 -4 12 -16 12 -27 0
-21 16 -26 23 -6 4 10 6 10 6 0 2 -24 21 -13 21 11 0 14 5 28 10 31 6 3 10 20
10 36 0 25 -3 29 -19 24 -12 -3 -21 0 -25 10 -4 11 -13 15 -28 11 -13 -3 -17
-3 -10 0 22 10 13 26 -10 18 -20 -6 -21 -5 -10 9 8 9 11 21 7 27 -13 21 -25 9
-26 -27 -1 -24 -3 -29 -6 -15 -4 21 -33 32 -33 12 0 -5 5 -10 11 -10 8 0 7 -6
-2 -17 -8 -9 -13 -19 -12 -22 1 -3 -5 -5 -13 -3 -8 2 -14 -3 -14 -10 0 -9 -3
-9 -11 2 -8 11 -12 12 -16 3 -2 -7 -11 -13 -18 -13 -8 0 -20 -9 -28 -20 -8
-11 -17 -17 -20 -13 -4 3 -7 -1 -7 -11 0 -13 -5 -16 -20 -11 -11 4 -20 3 -19
-2 4 -23 -2 -53 -11 -53 -5 0 -7 7 -3 16 4 12 0 15 -22 12 -34 -4 -42 -20 -20
-42 9 -9 12 -17 6 -17 -6 -1 -15 -2 -20 -3 -5 0 -13 -5 -18 -10 -5 -5 -3 -6 5
-2 6 4 12 2 12 -3 0 -6 -7 -12 -15 -12 -8 -1 -19 -3 -25 -4 -5 -1 -19 -3 -30
-4 -11 0 -18 -7 -16 -13 1 -7 1 -10 -1 -5 -3 4 -9 5 -14 1 -5 -3 -8 0 -7 8 3
13 -2 14 -49 17 -13 1 -23 7 -23 16 0 14 -11 19 -35 16 -5 -1 0 7 13 18 14 13
22 29 21 48 -4 64 1 114 11 108 6 -3 10 1 10 9 0 9 4 16 9 16 5 0 8 11 5 25
-2 14 0 25 6 25 5 0 10 -11 10 -25 0 -14 8 -29 19 -35 28 -14 31 -13 31 14 0
13 7 27 16 30 8 3 12 10 9 16 -3 5 -2 10 2 10 5 0 9 12 10 28 0 15 -1 20 -4
10 -6 -24 -30 -29 -50 -10 -15 16 -16 16 -11 0 4 -10 1 -19 -8 -22 -18 -7 -20
34 -2 52 17 17 26 15 31 -5 3 -14 6 -12 15 10 6 15 16 27 22 27 5 0 10 7 10
16 0 14 -3 14 -16 4 -13 -11 -16 -10 -21 8 -3 14 -13 22 -27 22 -12 0 -16 -3
-10 -8 6 -4 16 -16 22 -28 9 -16 8 -21 -4 -21 -7 0 -14 4 -14 9 0 5 -4 6 -10
3 -6 -4 -10 7 -10 24 0 23 -5 31 -17 31 -36 0 -63 -13 -69 -32 -5 -16 -8 -17
-14 -7 -5 7 -6 18 -2 24 3 5 -3 3 -13 -5 -11 -9 -16 -10 -11 -2 4 7 2 12 -8
12 -14 0 -16 -23 -4 -36 9 -9 -2 -34 -15 -34 -6 0 -7 3 -4 7 4 3 2 12 -4 19
-6 8 -9 21 -5 29 3 8 1 15 -4 15 -6 0 -10 -9 -10 -20 0 -11 -6 -20 -12 -20 -9
0 -10 -3 -2 -8 6 -4 13 -28 16 -54 4 -36 2 -45 -8 -41 -18 7 -18 -5 1 -23 8
-9 15 -22 15 -30 0 -8 -7 -14 -15 -14 -9 0 -15 -10 -15 -26 0 -43 -16 -62 -47
-57 -24 4 -26 2 -13 -9 14 -12 16 -22 11 -53 -1 -5 -13 4 -26 20 l-25 30 0
-37 c0 -29 3 -36 15 -32 10 4 15 0 15 -14 0 -25 -18 -39 -25 -20 -6 16 -55 23
-55 8 0 -6 -7 -10 -15 -10 -15 0 -21 32 -16 92 1 14 -3 29 -8 33 -6 3 -11 -2
-12 -12 0 -15 -2 -14 -11 5 -6 12 -17 22 -25 22 -7 0 -13 6 -13 13 0 8 -11 24
-25 37 -22 20 -23 25 -10 32 17 10 21 38 4 38 -5 0 -7 -5 -3 -12 4 -7 3 -8 -5
-4 -6 4 -9 16 -6 27 4 11 2 19 -4 19 -6 0 -11 -9 -11 -20 0 -11 -7 -20 -15
-20 -8 0 -15 5 -15 10 0 6 -6 10 -14 10 -8 0 -13 10 -13 25 0 13 3 22 8 19 13
-8 11 10 -3 24 -9 9 -9 12 0 12 6 0 9 7 6 15 -4 8 -2 15 4 15 6 0 9 7 8 15 -4
24 -14 28 -24 8z m611 -159 c-8 -21 -23 -17 -23 6 0 13 5 18 14 14 8 -3 12
-12 9 -20z m475 -106 c-6 -18 -28 -21 -28 -4 0 9 7 16 16 16 9 0 14 -5 12 -12z
m-1108 -58 c12 -43 0 -30 -16 16 -7 20 -8 32 -3 27 5 -5 14 -24 19 -43z m40
-35 c0 -8 -2 -15 -4 -15 -2 0 -6 7 -10 15 -3 8 -1 15 4 15 6 0 10 -7 10 -15z
m-6 -50 c4 -14 10 -24 14 -21 4 2 9 -9 10 -25 1 -16 -1 -29 -4 -29 -16 0 -54
53 -54 76 0 32 26 31 34 -1z m260 -36 c-34 -13 -50 -11 -29 5 11 8 26 11 34 8
12 -4 11 -7 -5 -13z m-55 -11 c0 -13 -3 -17 -6 -10 -4 10 -8 10 -19 1 -8 -6
-12 -15 -9 -19 7 -11 -34 -24 -43 -15 -4 4 0 10 8 13 8 3 23 16 35 28 25 30
35 30 34 2z m705 16 c13 -5 14 -9 5 -20 -15 -18 -39 -18 -39 -1 0 12 9 27 16
27 1 0 10 -3 18 -6z m-324 -40 c0 -14 -3 -15 -17 -3 -10 7 -20 15 -22 16 -2 2
5 3 17 3 14 0 22 -6 22 -16z m64 4 c-3 -4 -12 -8 -20 -8 -8 0 -13 4 -10 8 3 5
12 9 20 9 8 0 13 -4 10 -9z m-554 -38 c0 -5 -4 -10 -10 -10 -18 0 -11 -20 8
-21 10 0 12 -3 4 -6 -6 -2 -10 -9 -7 -13 3 -5 0 -12 -7 -16 -7 -4 -10 -4 -6 1
4 4 1 20 -7 35 -11 22 -12 30 -2 33 20 9 27 8 27 -3z m610 -41 c0 -6 -4 -7
-10 -4 -5 3 -10 11 -10 16 0 6 5 7 10 4 6 -3 10 -11 10 -16z m56 -15 c-3 -9
-6 -23 -7 -32 0 -11 -2 -12 -6 -4 -2 6 -12 12 -20 12 -9 0 -13 -6 -10 -14 4
-10 1 -13 -7 -10 -17 7 -8 44 10 44 8 0 14 5 14 10 0 6 7 10 16 10 11 0 14 -5
10 -16z m74 -35 c0 -5 -10 -9 -21 -9 -18 0 -19 2 -9 15 12 15 30 12 30 -6z
m-13 -25 c-3 -3 -12 -4 -19 -1 -8 3 -5 6 6 6 11 1 17 -2 13 -5z m-1010 -36
c-3 -8 -6 -5 -6 6 -1 11 2 17 5 13 3 -3 4 -12 1 -19z m953 -54 c0 -2 -7 -4
-15 -4 -8 0 -15 4 -15 10 0 5 7 7 15 4 8 -4 15 -8 15 -10z m5 -24 c3 -5 1 -10
-4 -10 -6 0 -11 5 -11 10 0 6 2 10 4 10 3 0 8 -4 11 -10z m-824 -24 c0 5 4 0
8 -11 5 -11 4 -28 -1 -38 -11 -21 -5 -32 12 -22 6 4 9 13 6 21 -3 7 -1 16 4
19 13 8 13 -36 0 -55 -5 -8 -10 -10 -10 -5 0 6 -4 4 -9 -3 -6 -10 -10 -7 -15
13 -4 14 -4 30 -1 34 3 5 -2 11 -10 15 -9 3 -15 0 -15 -8 0 -9 -8 -12 -25 -8
-30 5 -28 26 3 30 15 2 22 11 22 25 1 22 1 22 15 3 8 -11 15 -16 16 -10z m43
9 c-4 -8 -8 -15 -10 -15 -2 0 -4 7 -4 15 0 8 4 15 10 15 5 0 7 -7 4 -15z
m-327 -151 c-3 -3 -12 -4 -19 -1 -8 3 -5 6 6 6 11 1 17 -2 13 -5z m1085 -16
c-7 -7 -12 -8 -12 -2 0 14 12 26 19 19 2 -3 -1 -11 -7 -17z m88 12 c0 -5 -4
-10 -9 -10 -6 0 -13 5 -16 10 -3 6 1 10 9 10 9 0 16 -4 16 -10z m86 -21 c8
-14 -16 -30 -31 -21 -5 4 -16 7 -24 7 -8 0 -16 6 -18 13 -6 15 63 17 73 1z
m-969 -86 c10 -13 16 -15 19 -5 8 17 34 15 34 -3 0 -16 -28 -19 -67 -9 -13 4
-20 11 -16 20 7 18 13 18 30 -3z m728 -13 c3 -5 1 -10 -4 -10 -6 0 -11 5 -11
10 0 6 2 10 4 10 3 0 8 -4 11 -10z m-642 -15 c4 -8 2 -17 -3 -20 -6 -4 -10 3
-10 14 0 25 6 27 13 6z m1105 -28 c21 -9 28 -17 23 -26 -7 -10 -15 -9 -45 3
-21 9 -35 20 -31 26 8 13 16 13 53 -3z m-1043 -46 c3 -5 1 -12 -5 -16 -5 -3
-10 1 -10 9 0 18 6 21 15 7z m20 -41 c-10 -11 -22 -17 -26 -14 -12 7 12 33 30
34 11 0 10 -5 -4 -20z m55 -32 c0 -5 -9 -8 -20 -8 -11 0 -20 -4 -20 -10 0 -5
-6 -10 -14 -10 -8 0 -16 -6 -18 -12 -3 -8 -9 -4 -17 10 -10 19 -9 22 9 22 11
0 20 4 20 8 0 5 10 14 23 19 21 10 36 2 37 -19z m364 3 c-10 -2 -27 -12 -37
-22 -10 -10 -22 -19 -28 -19 -6 0 -7 -4 -4 -10 11 -17 -37 -11 -58 8 -15 12
-21 14 -24 4 -3 -6 -9 -10 -14 -6 -15 9 0 24 26 24 13 0 25 -6 28 -12 3 -10 9
-8 24 5 11 9 27 17 36 17 10 0 17 8 17 20 0 18 3 18 27 7 23 -10 24 -12 7 -16z
m-192 -33 c-9 -9 -15 -9 -24 0 -9 9 -7 12 12 12 19 0 21 -3 12 -12z m-232 -55
c0 -13 -4 -23 -10 -23 -5 0 -10 7 -10 15 0 9 -10 15 -22 16 -13 0 -17 3 -10 6
10 4 10 8 2 18 -10 12 -6 12 19 2 22 -8 31 -18 31 -34z m247 11 c-3 -3 -12 -4
-19 -1 -8 3 -5 6 6 6 11 1 17 -2 13 -5z m107 -19 c6 -10 17 -25 24 -33 8 -9
10 -26 6 -48 -5 -28 -3 -34 12 -34 17 0 16 -1 -2 -16 -19 -15 -18 -15 4 -11
12 3 22 3 22 1 0 -3 -10 -9 -22 -14 -20 -8 -18 -9 15 -9 24 -1 40 -7 43 -16 4
-8 15 -15 25 -15 10 0 19 -4 19 -10 0 -5 7 -10 16 -10 12 0 15 -7 12 -30 -4
-26 -2 -30 16 -28 11 2 21 -3 22 -9 1 -7 2 -17 3 -22 0 -5 24 -8 51 -7 28 1
50 1 50 0 0 -2 -7 -9 -15 -17 -11 -12 -23 -13 -52 -6 -21 5 -52 9 -70 9 -20 0
-36 7 -42 18 -6 9 -11 11 -11 5 0 -26 -29 -12 -35 17 -7 30 -21 47 -32 36 -3
-3 2 -17 11 -30 9 -14 16 -29 16 -33 0 -4 -4 -2 -9 6 -12 19 -51 25 -51 8 0
-9 -21 -11 -82 -8 -46 2 -77 6 -70 8 17 7 15 33 -3 33 -8 0 -20 -9 -27 -20
-15 -24 -38 -26 -38 -4 0 14 -2 14 -16 -1 -22 -21 -27 -14 -14 20 8 22 8 30
-2 37 -10 6 -10 8 0 8 6 0 12 12 12 27 0 39 10 22 12 -21 1 -22 6 -36 14 -36
19 0 29 21 14 30 -15 10 -22 88 -9 112 5 10 16 18 24 18 8 0 15 9 15 20 0 11
7 20 15 20 11 0 12 5 5 25 -5 14 -6 24 -2 24 24 -4 52 2 47 10 -5 9 27 20 54
17 8 0 19 -10 25 -21z m256 -91 c0 -8 -4 -14 -10 -14 -5 0 -10 9 -10 21 0 11
5 17 10 14 6 -3 10 -13 10 -21z"/>
<path d="M1010 480 c0 -5 4 -10 9 -10 6 0 13 5 16 10 3 6 -1 10 -9 10 -9 0
-16 -4 -16 -10z"/>
<path d="M1050 479 c0 -5 5 -7 10 -4 6 3 10 8 10 11 0 2 -4 4 -10 4 -5 0 -10
-5 -10 -11z"/>
<path d="M940 421 c0 -6 5 -13 10 -16 6 -3 10 1 10 9 0 9 -4 16 -10 16 -5 0
-10 -4 -10 -9z"/>
<path d="M904 381 c4 -5 0 -12 -6 -14 -10 -4 -9 -8 2 -16 13 -9 13 -11 0 -11
-9 0 -6 -6 9 -16 19 -14 25 -14 32 -3 7 12 9 12 9 0 0 -8 2 -12 5 -10 8 9 -29
79 -43 79 -7 0 -11 -4 -8 -9z"/>
<path d="M940 275 c0 -8 5 -15 10 -15 6 0 10 7 10 15 0 8 -4 15 -10 15 -5 0
-10 -7 -10 -15z"/>
<path d="M1140 266 c0 -2 7 -9 15 -16 12 -10 15 -10 15 4 0 9 -7 16 -15 16 -8
0 -15 -2 -15 -4z"/>
<path d="M1215 260 c3 -5 8 -10 11 -10 2 0 4 5 4 10 0 6 -5 10 -11 10 -5 0 -7
-4 -4 -10z"/>
<path d="M1182 249 c2 -7 10 -15 17 -17 8 -3 12 1 9 9 -2 7 -10 15 -17 17 -8
3 -12 -1 -9 -9z"/>
<path d="M1172 221 c2 -7 7 -12 11 -12 12 1 9 15 -3 20 -7 2 -11 -2 -8 -8z"/>
<path d="M1220 212 c0 -12 19 -26 26 -19 2 2 -2 10 -11 17 -9 8 -15 8 -15 2z"/>
<path d="M536 1775 c4 -8 8 -15 11 -15 2 0 11 7 19 15 14 13 13 15 -10 15 -18
0 -24 -4 -20 -15z"/>
<path d="M630 1781 c0 -5 3 -16 6 -25 4 -12 9 -12 18 -3 11 9 10 14 0 24 -15
15 -24 17 -24 4z"/>
<path d="M620 1722 c0 -8 37 -42 45 -42 14 0 2 31 -14 40 -23 12 -31 13 -31 2z"/>
<path d="M398 1598 c5 -54 8 -65 17 -57 7 8 -7 109 -15 109 -4 0 -5 -24 -2
-52z"/>
<path d="M737 1643 c-14 -13 -6 -23 18 -23 16 0 25 6 25 15 0 15 -31 21 -43 8z"/>
<path d="M1505 1641 c-6 -11 9 -23 19 -14 9 9 7 23 -3 23 -6 0 -12 -4 -16 -9z"/>
<path d="M1615 1641 c-6 -11 9 -23 19 -14 9 9 7 23 -3 23 -6 0 -12 -4 -16 -9z"/>
<path d="M1670 1641 c0 -6 5 -13 10 -16 6 -3 10 1 10 9 0 9 -4 16 -10 16 -5 0
-10 -4 -10 -9z"/>
<path d="M439 1623 c5 -10 13 -27 16 -38 5 -13 9 -15 12 -7 3 6 9 10 14 6 16
-10 9 4 -15 30 -27 30 -40 34 -27 9z"/>
<path d="M1641 1614 c-12 -14 -12 -17 0 -25 23 -15 49 -10 49 9 0 14 -2 15
-10 2 -8 -12 -10 -11 -10 8 0 26 -9 28 -29 6z"/>
<path d="M1241 1604 c0 -11 3 -14 6 -6 3 7 2 16 -1 19 -3 4 -6 -2 -5 -13z"/>
<path d="M1460 1610 c0 -5 4 -11 10 -15 5 -3 7 -12 3 -20 -3 -9 1 -15 8 -15
22 0 20 47 -2 53 -11 3 -19 1 -19 -3z"/>
<path d="M697 1593 c-14 -4 -16 -8 -6 -19 16 -20 51 -18 47 3 -3 18 -14 23
-41 16z"/>
<path d="M1400 1585 c0 -18 19 -40 26 -32 4 4 0 15 -9 24 -9 10 -17 13 -17 8z"/>
<path d="M773 1564 c-15 -15 -17 -44 -4 -44 7 0 23 51 18 56 -1 1 -8 -4 -14
-12z"/>
<path d="M1401 1524 c0 -11 3 -14 6 -6 3 7 2 16 -1 19 -3 4 -6 -2 -5 -13z"/>
<path d="M376 1521 c-4 -7 -5 -15 -2 -18 9 -9 19 4 14 18 -4 11 -6 11 -12 0z"/>
<path d="M437 1524 c-13 -13 -7 -24 14 -24 11 0 19 5 17 12 -5 14 -22 21 -31
12z"/>
<path d="M1156 1515 c-3 -9 0 -15 9 -15 16 0 20 16 6 24 -5 3 -11 -1 -15 -9z"/>
<path d="M1270 1490 c0 -5 4 -10 9 -10 6 0 13 5 16 10 3 6 -1 10 -9 10 -9 0
-16 -4 -16 -10z"/>
<path d="M1252 1455 c0 -31 2 -34 19 -24 10 5 19 15 19 22 0 7 -9 18 -19 24
-17 11 -19 9 -19 -22z"/>
<path d="M798 1445 c5 -28 17 -33 26 -9 7 19 -1 34 -18 34 -9 0 -12 -9 -8 -25z"/>
<path d="M1654 1399 c3 -17 6 -35 6 -40 0 -5 7 -9 15 -9 8 0 15 5 15 11 0 5
-4 7 -10 4 -5 -3 -10 -2 -10 4 0 5 5 13 10 16 6 3 10 14 9 23 0 14 -2 13 -9
-3 -8 -19 -9 -19 -9 3 -1 12 -6 22 -12 22 -8 0 -9 -11 -5 -31z"/>
<path d="M1250 1400 c0 -5 5 -10 10 -10 6 0 10 5 10 10 0 6 -4 10 -10 10 -5 0
-10 -4 -10 -10z"/>
<path d="M1605 1401 c-7 -12 12 -24 25 -16 11 7 4 25 -10 25 -5 0 -11 -4 -15
-9z"/>
<path d="M1600 1360 c0 -5 5 -10 10 -10 6 0 10 5 10 10 0 6 -4 10 -10 10 -5 0
-10 -4 -10 -10z"/>
<path d="M455 1350 c-3 -5 3 -10 15 -10 12 0 18 5 15 10 -3 6 -10 10 -15 10
-5 0 -12 -4 -15 -10z"/>
<path d="M245 1340 c3 -5 10 -10 16 -10 5 0 9 5 9 10 0 6 -7 10 -16 10 -8 0
-12 -4 -9 -10z"/>
<path d="M280 1330 c0 -5 5 -10 10 -10 6 0 10 5 10 10 0 6 -4 10 -10 10 -5 0
-10 -4 -10 -10z"/>
<path d="M425 1309 c-4 -5 5 -9 19 -9 14 0 26 4 26 8 0 11 -39 12 -45 1z"/>
<path d="M1530 1265 c0 -8 4 -15 10 -15 5 0 7 7 4 15 -4 8 -8 15 -10 15 -2 0
-4 -7 -4 -15z"/>
<path d="M1485 1224 c9 -9 18 -14 21 -11 9 9 -6 27 -22 27 -13 0 -13 -2 1 -16z"/>
<path d="M1771 1194 c0 -11 3 -14 6 -6 3 7 2 16 -1 19 -3 4 -6 -2 -5 -13z"/>
<path d="M1800 1190 c0 -11 5 -20 10 -20 6 0 10 9 10 20 0 11 -4 20 -10 20 -5
0 -10 -9 -10 -20z"/>
<path d="M320 1131 c0 -5 7 -11 15 -15 9 -3 15 0 15 9 0 8 -7 15 -15 15 -8 0
-15 -4 -15 -9z"/>
<path d="M1820 1130 c0 -5 5 -10 10 -10 6 0 10 5 10 10 0 6 -4 10 -10 10 -5 0
-10 -4 -10 -10z"/>
<path d="M278 1083 c7 -3 16 -2 19 1 4 3 -2 6 -13 5 -11 0 -14 -3 -6 -6z"/>
<path d="M375 1071 l-30 -7 30 -10 c21 -8 35 -8 47 0 9 5 21 7 25 3 4 -5 1
-12 -7 -17 -8 -6 -10 -10 -4 -10 5 0 15 5 22 12 9 9 7 14 -6 24 -18 14 -31 15
-77 5z"/>
<path d="M376 1023 c-3 -3 4 -13 16 -21 15 -11 23 -12 26 -4 2 6 11 9 20 6 12
-4 11 -2 -3 7 -24 16 -50 21 -59 12z"/>
<path d="M376 981 c-4 -7 -5 -15 -2 -18 9 -9 19 4 14 18 -4 11 -6 11 -12 0z"/>
<path d="M1570 960 c0 -5 7 -10 15 -10 8 0 15 5 15 10 0 6 -7 10 -15 10 -8 0
-15 -4 -15 -10z"/>
<path d="M1655 960 c-3 -5 -2 -10 4 -10 5 0 13 5 16 10 3 6 2 10 -4 10 -5 0
-13 -4 -16 -10z"/>
<path d="M1463 953 c-22 -8 -14 -23 10 -23 13 0 28 -5 33 -10 8 -8 15 -6 23 4
7 8 19 12 27 9 8 -3 14 0 14 5 0 17 -20 25 -34 13 -9 -7 -22 -8 -37 -3 -13 5
-30 7 -36 5z"/>
<path d="M1610 940 c0 -5 4 -10 9 -10 6 0 13 5 16 10 3 6 -1 10 -9 10 -9 0
-16 -4 -16 -10z"/>
<path d="M120 905 c0 -8 5 -15 10 -15 6 0 10 7 10 15 0 8 -4 15 -10 15 -5 0
-10 -7 -10 -15z"/>
<path d="M164 904 c3 -9 6 -18 6 -20 0 -2 7 -4 16 -4 11 0 14 5 10 16 -3 9 -6
18 -6 20 0 2 -7 4 -16 4 -11 0 -14 -5 -10 -16z"/>
<path d="M1472 908 c6 -18 28 -21 28 -4 0 9 -7 16 -16 16 -9 0 -14 -5 -12 -12z"/>
<path d="M80 859 c0 -11 5 -17 10 -14 6 3 10 13 10 21 0 8 -4 14 -10 14 -5 0
-10 -9 -10 -21z"/>
<path d="M1745 759 c-4 -6 -4 -13 -1 -16 3 -4 6 -1 6 6 0 7 4 10 9 6 5 -3 12
-1 16 5 3 5 -1 10 -9 10 -8 0 -18 -5 -21 -11z"/>
<path d="M1807 763 c-12 -12 -7 -38 13 -63 15 -19 20 -21 20 -8 0 9 -6 19 -12
22 -10 5 -10 7 0 12 16 8 16 44 -1 44 -8 0 -17 -3 -20 -7z"/>
<path d="M80 715 c0 -8 5 -15 10 -15 6 0 10 7 10 15 0 8 -4 15 -10 15 -5 0
-10 -7 -10 -15z"/>
<path d="M210 640 c0 -19 3 -21 12 -12 9 9 9 15 0 24 -9 9 -12 7 -12 -12z"/>
<path d="M1275 630 c-3 -5 -1 -10 4 -10 6 0 11 -7 11 -15 0 -22 27 -18 33 4 3
11 2 22 -1 25 -9 10 -40 7 -47 -4z"/>
<path d="M1800 630 c0 -5 9 -10 20 -10 11 0 20 5 20 10 0 6 -9 10 -20 10 -11
0 -20 -4 -20 -10z"/>
<path d="M307 605 c-5 -11 0 -15 16 -15 12 0 18 4 12 8 -5 4 -13 11 -16 15 -4
4 -9 1 -12 -8z"/>
<path d="M358 613 c7 -3 16 -2 19 1 4 3 -2 6 -13 5 -11 0 -14 -3 -6 -6z"/>
<path d="M1352 590 c0 -14 2 -19 5 -12 2 6 2 18 0 25 -3 6 -5 1 -5 -13z"/>
<path d="M230 580 c0 -5 5 -10 10 -10 6 0 10 -9 10 -20 0 -11 -4 -20 -10 -20
-5 0 -7 -7 -4 -15 7 -18 28 -19 42 -2 8 10 6 21 -8 45 -19 31 -40 43 -40 22z"/>
<path d="M1377 574 c-8 -8 1 -24 14 -24 5 0 9 7 9 15 0 15 -12 20 -23 9z"/>
<path d="M320 554 c0 -8 5 -12 10 -9 6 3 10 10 10 16 0 5 -4 9 -10 9 -5 0 -10
-7 -10 -16z"/>
<path d="M1342 528 c2 -15 11 -24 27 -26 23 -4 23 -4 5 22 -24 32 -36 33 -32
4z"/>
<path d="M230 480 c0 -5 5 -10 10 -10 6 0 10 5 10 10 0 6 -4 10 -10 10 -5 0
-10 -4 -10 -10z"/>
<path d="M1350 467 c0 -7 6 -21 13 -31 12 -17 14 -16 14 13 0 19 -5 31 -14 31
-7 0 -13 -6 -13 -13z"/>
<path d="M1382 393 c-8 -15 -9 -24 -1 -28 15 -10 21 0 17 27 l-3 23 -13 -22z"/>
<path d="M503 353 c-18 -7 -16 -23 2 -23 8 0 15 7 15 15 0 8 -1 15 -2 14 -2 0
-9 -3 -15 -6z"/>
<path d="M520 55 c0 -8 9 -15 20 -15 11 0 20 7 20 15 0 8 -9 15 -20 15 -11 0
-20 -7 -20 -15z"/>
<path d="M1360 55 c0 -8 9 -15 20 -15 11 0 20 7 20 15 0 8 -9 15 -20 15 -11 0
-20 -7 -20 -15z"/>
<path d="M705 51 c-6 -11 9 -23 19 -14 9 9 7 23 -3 23 -6 0 -12 -4 -16 -9z"/>
</g>
</svg>
